<svg aria-hidden="true" class="shrink-0 rounded-2xs bg-surface object-contain text-text/60" height="16" viewBox="0 0 16 16" width="16" xmlns="http://www.w3.org/2000/svg"><path d="M5.58476 5.18242C5.58476 5.66022 5.19742 6.04756 4.71962 6.04756C4.24183 6.04756 3.85449 5.66022 3.85449 5.18242C3.85449 4.70462 4.24183 4.31729 4.71962 4.31729C5.19742 4.31729 5.58476 4.70462 5.58476 5.18242Z" fill="currentColor"></path> <path d="M13.8086 7.41943V6.3999C13.8086 5.73784 13.808 5.27242 13.7783 4.90967C13.7492 4.55342 13.6944 4.34233 13.6113 4.1792C13.438 3.83894 13.1615 3.56155 12.8213 3.38818C12.6581 3.30507 12.4463 3.25032 12.0898 3.22119C11.7272 3.19158 11.2623 3.19189 10.6006 3.19189H5.40039C4.73833 3.19189 4.27291 3.19155 3.91016 3.22119C3.55406 3.25031 3.34279 3.30517 3.17969 3.38818C2.83943 3.56155 2.56204 3.83894 2.38867 4.1792C2.30566 4.3423 2.2508 4.55358 2.22168 4.90967C2.19204 5.27242 2.19238 5.73784 2.19238 6.3999V9.6001C2.19238 10.2618 2.19207 10.7267 2.22168 11.0894C2.25081 11.4459 2.30556 11.6576 2.38867 11.8208C2.56204 12.1611 2.83943 12.4375 3.17969 12.6108C3.34282 12.6939 3.55391 12.7487 3.91016 12.7778C4.27291 12.8075 4.73833 12.8081 5.40039 12.8081H7.00293C7.29288 12.8081 7.52832 13.0435 7.52832 13.3335C7.52814 13.6233 7.29277 13.8579 7.00293 13.8579H5.40039C4.75574 13.8579 4.24059 13.8586 3.8252 13.8247C3.40375 13.7903 3.03896 13.7174 2.70312 13.5464C2.1653 13.2723 1.72716 12.8352 1.45312 12.2974C1.2821 11.9616 1.21022 11.5967 1.17578 11.1753C1.14184 10.7599 1.1416 10.2447 1.1416 9.6001V6.3999C1.1416 5.75524 1.14185 5.24011 1.17578 4.82471C1.21021 4.40337 1.28216 4.0384 1.45312 3.70264C1.72716 3.16481 2.1653 2.72667 2.70312 2.45264C3.03889 2.28167 3.40386 2.20972 3.8252 2.17529C4.2406 2.14136 4.75573 2.14111 5.40039 2.14111H10.6006C11.2452 2.14111 11.7604 2.14136 12.1758 2.17529C12.5971 2.20973 12.9621 2.28161 13.2979 2.45264C13.8357 2.72667 14.2728 3.16481 14.5469 3.70264C14.7179 4.03847 14.7908 4.40326 14.8252 4.82471C14.8591 5.24011 14.8584 5.75525 14.8584 6.3999V7.41943C14.8582 7.70912 14.6237 7.94367 14.334 7.94385C14.0441 7.94385 13.8088 7.70923 13.8086 7.41943Z" fill="currentColor"></path> <path d="M11.5176 4.65691C11.8075 4.65691 12.043 4.89235 12.043 5.1823C12.043 5.47225 11.8075 5.70769 11.5176 5.70769H7.01758C6.72763 5.70769 6.49219 5.47225 6.49219 5.1823C6.49219 4.89235 6.72763 4.65691 7.01758 4.65691H11.5176Z" fill="currentColor"></path> <path d="M7.8655 9.3117C7.57167 8.40992 8.4376 7.56125 9.33328 7.87322L14.3596 9.6242C15.3386 9.9652 15.3985 11.3265 14.4534 11.7521L12.6253 12.5754C12.605 12.5845 12.5884 12.6004 12.5784 12.6203L11.6282 14.5207C11.1697 15.4377 9.82985 15.338 9.51199 14.3635L7.8655 9.3117ZM8.98757 8.86443C8.91226 8.83847 8.84004 8.90969 8.86453 8.98553L10.51 14.0383C10.519 14.0657 10.5312 14.0786 10.5413 14.0861C10.5537 14.0954 10.5725 14.103 10.595 14.1047C10.6175 14.1063 10.637 14.1012 10.6507 14.0939C10.6617 14.088 10.6757 14.077 10.6887 14.051L11.6389 12.1506C11.7571 11.9144 11.9528 11.7257 12.1936 11.6174L14.0227 10.7951C14.0496 10.7829 14.0604 10.7687 14.0667 10.758C14.0744 10.7446 14.0804 10.7251 14.0794 10.7023C14.0783 10.6796 14.0706 10.6613 14.0618 10.6486C14.0547 10.6385 14.0427 10.6252 14.0149 10.6154L8.98757 8.86443Z" fill="currentColor"></path></svg>