<svg xmlns="http://www.w3.org/2000/svg" width="40" height="40" viewBox="0 0 40 40" shape-rendering="crispEdges"><path fill="#181818" d="M0 0h5v1H0zM33 0h7v1H33zM0 1h3v1H0zM8 1h22v1H8zM35 1h5v1H35zM0 2h1v1H0zM5 2h29v1H5zM37 2h3v1H37zM0 3h1v1H0zM3 3h32v1H3zM37 3h3v1H37zM2 4h34v1H2zM38 4h2v1H38zM1 5h35v1H1zM38 5h2v1H38zM1 6h36v1H1zM39 6h1v1H39zM1 7h36v1H1zM39 7h1v1H39zM1 8h36v1H1zM39 8h1v1H39zM0 9h7v1H0zM11 9h16v1H11zM31 9h7v1H31zM39 9h1v1H39zM0 10h5v1H0zM12 10h13v1H12zM33 10h5v1H33zM39 10h1v1H39zM0 11h5v1H0zM14 11h9v1H14zM33 11h5v1H33zM39 11h1v1H39zM0 12h5v1H0zM16 12h6v1H16zM33 12h5v1H33zM39 12h1v1H39zM0 13h5v1H0zM16 13h6v1H16zM33 13h5v1H33zM39 13h1v1H39zM0 14h5v1H0zM17 14h4v1H17zM33 14h5v1H33zM39 14h1v1H39zM0 15h5v1H0zM18 15h2v1H18zM33 15h5v1H33zM39 15h1v1H39zM0 16h5v1H0zM33 16h5v1H33zM39 16h1v1H39zM0 17h5v1H0zM33 17h5v1H33zM39 17h1v1H39zM0 18h5v1H0zM33 18h5v1H33zM39 18h1v1H39zM0 19h5v1H0zM33 19h5v1H33zM39 19h1v1H39zM0 20h5v1H0zM33 20h5v1H33zM39 20h1v1H39zM0 21h5v1H0zM12 21h1v1H12zM33 21h5v1H33zM39 21h1v1H39zM0 22h5v1H0zM12 22h2v1H12zM24 22h1v1H24zM33 22h5v1H33zM39 22h1v1H39zM0 23h5v1H0zM12 23h4v1H12zM22 23h3v1H22zM33 23h5v1H33zM39 23h1v1H39zM0 24h5v1H0zM12 24h5v1H12zM21 24h4v1H21zM33 24h5v1H33zM39 24h1v1H39zM0 25h5v1H0zM12 25h13v1H12zM33 25h5v1H33zM39 25h1v1H39zM0 26h5v1H0zM12 26h13v1H12zM33 26h5v1H33zM39 26h1v1H39zM0 27h5v1H0zM12 27h13v1H12zM33 27h5v1H33zM39 27h1v1H39zM0 28h5v1H0zM12 28h13v1H12zM33 28h5v1H33zM39 28h1v1H39zM0 29h5v1H0zM12 29h13v1H12zM33 29h5v1H33zM39 29h1v1H39zM0 30h6v1H0zM12 30h14v1H12zM31 30h7v1H31zM39 30h1v1H39zM1 31h36v1H1zM39 31h1v1H39zM1 32h36v1H1zM39 32h1v1H39zM1 33h36v1H1zM39 33h1v1H39zM2 34h35v1H2zM38 34h2v1H38zM2 35h34v1H2zM38 35h2v1H38zM0 36h1v1H0zM3 36h32v1H3zM37 36h3v1H37zM0 37h1v1H0zM4 37h29v1H4zM37 37h3v1H37zM0 38h3v1H0zM8 38h22v1H8zM35 38h5v1H35zM0 39h5v1H0zM33 39h7v1H33z"/><path fill="#181919" d="M25 21h1v1H25zM25 22h1v1H25z"/><path fill="#18191a" d="M25 23h1v1H25zM25 24h1v1H25zM25 25h1v1H25zM25 26h1v1H25zM25 27h1v1H25zM25 29h1v1H25z"/><path fill="#18191b" d="M25 28h1v1H25z"/><path fill="#191818" d="M23 11h1v1H23zM15 12h1v1H15zM22 12h1v1H22zM14 22h1v1H14zM23 22h1v1H23zM6 30h1v1H6z"/><path fill="#191819" d="M5 10h1v1H5z"/><path fill="#191918" d="M25 10h1v1H25zM32 10h1v1H32z"/><path fill="#191919" d="M24 21h1v1H24z"/><path fill="#19191a" d="M32 29h1v1H32z"/><path fill="#191a19" d="M25 20h1v1H25z"/><path fill="#191a1c" d="M32 28h1v1H32z"/><path fill="#191b1c" d="M32 24h1v1H32zM32 25h1v1H32z"/><path fill="#1a1919" d="M12 20h1v1H12zM13 21h1v1H13zM5 29h1v1H5z"/><path fill="#1a1a19" d="M32 11h1v1H32z"/><path fill="#1a1b1b" d="M32 21h1v1H32zM32 22h1v1H32z"/><path fill="#1a1b1c" d="M32 23h1v1H32z"/><path fill="#1a1b1d" d="M32 26h1v1H32zM32 27h1v1H32z"/><path fill="#1a1c1a" d="M32 15h1v1H32zM32 16h1v1H32zM32 17h1v1H32zM32 18h1v1H32zM32 19h1v1H32z"/><path fill="#1a1c1b" d="M32 20h1v1H32z"/><path fill="#1a1d22" d="M26 30h1v1H26zM30 30h1v1H30z"/><path fill="#1b1919" d="M13 11h1v1H13zM20 24h1v1H20z"/><path fill="#1b191a" d="M5 11h1v1H5z"/><path fill="#1b1b19" d="M30 9h1v1H30z"/><path fill="#1b1c1a" d="M32 14h1v1H32z"/><path fill="#1b1f27" d="M27 30h1v1H27zM29 30h1v1H29z"/><path fill="#1c1918" d="M15 13h1v1H15z"/><path fill="#1c1919" d="M5 14h1v1H5zM5 15h1v1H5zM5 16h1v1H5zM5 17h1v1H5zM5 18h1v1H5zM5 19h1v1H5zM5 20h1v1H5zM5 21h1v1H5zM5 22h1v1H5zM5 23h1v1H5zM5 24h1v1H5zM17 24h1v1H17zM5 25h1v1H5zM5 26h1v1H5zM5 27h1v1H5z"/><path fill="#1c191a" d="M5 12h1v1H5zM5 13h1v1H5z"/><path fill="#1c1a19" d="M24 11h1v1H24z"/><path fill="#1c1a1b" d="M7 9h1v1H7z"/><path fill="#1c1c19" d="M32 12h1v1H32z"/><path fill="#1c1c1a" d="M32 13h1v1H32z"/><path fill="#1c2028" d="M28 30h1v1H28z"/><path fill="#1d1a19" d="M23 12h1v1H23zM5 28h1v1H5z"/><path fill="#1d1a1a" d="M14 12h1v1H14z"/><path fill="#1d1c19" d="M31 10h1v1H31z"/><path fill="#1d1d1d" d="M5 0h1v1H5zM6 1h2v1H6zM30 1h1v1H30zM1 2h1v1H1zM4 2h1v1H4zM36 2h1v1H36zM36 5h1v1H36zM38 6h1v1H38zM37 7h1v1H37zM0 8h1v1H0zM37 8h1v1H37zM0 31h1v1H0zM37 31h1v1H37zM0 32h1v1H0zM1 34h1v1H1zM1 37h1v1H1zM33 37h1v1H33zM36 37h1v1H36zM7 38h1v1H7zM30 38h2v1H30zM32 39h1v1H32z"/><path fill="#1e1a19" d="M22 13h1v1H22z"/><path fill="#1e1a1b" d="M10 9h1v1H10z"/><path fill="#1f1a19" d="M21 23h1v1H21z"/><path fill="#1f1d19" d="M27 9h1v1H27z"/><path fill="#201a1a" d="M16 23h1v1H16z"/><path fill="#201b1d" d="M6 10h1v1H6z"/><path fill="#202939" d="M31 29h1v1H31z"/><path fill="#211a1a" d="M11 30h1v1H11z"/><path fill="#212121" d="M31 0h2v1H31zM3 1h1v1H3zM31 1h2v1H31zM34 1h1v1H34zM2 3h1v1H2zM35 3h1v1H35zM0 4h1v1H0zM37 4h1v1H37zM0 6h1v1H0zM0 7h1v1H0zM37 32h2v1H37zM37 33h2v1H37zM0 35h1v1H0zM37 35h1v1H37zM2 36h1v1H2zM35 36h1v1H35zM3 38h1v1H3zM5 38h2v1H5zM34 38h1v1H34zM5 39h2v1H5z"/><path fill="#221b1a" d="M16 14h1v1H16zM23 21h1v1H23z"/><path fill="#231b1b" d="M14 21h1v1H14zM7 30h1v1H7z"/><path fill="#241c1b" d="M22 22h1v1H22z"/><path fill="#241d1f" d="M8 9h1v1H8z"/><path fill="#24211b" d="M29 9h1v1H29z"/><path fill="#251b1b" d="M21 14h1v1H21zM10 30h1v1H10z"/><path fill="#251c1b" d="M17 15h1v1H17z"/><path fill="#251d1f" d="M9 9h1v1H9z"/><path fill="#25221a" d="M28 9h1v1H28z"/><path fill="#261c1b" d="M15 22h1v1H15zM19 24h1v1H19zM8 30h1v1H8z"/><path fill="#262626" d="M6 0h2v1H6zM30 0h1v1H30zM5 1h1v1H5zM2 2h2v1H2zM34 2h2v1H34zM1 3h1v1H1zM36 3h1v1H36zM1 4h1v1H1zM36 4h1v1H36zM37 6h1v1H37zM38 7h1v1H38zM38 8h1v1H38zM38 31h1v1H38zM0 33h1v1H0zM1 35h1v1H1zM36 35h1v1H36zM1 36h1v1H1zM36 36h1v1H36zM2 37h2v1H2zM34 37h2v1H34zM32 38h1v1H32zM7 39h1v1H7zM30 39h2v1H30z"/><path fill="#271c1b" d="M20 15h1v1H20zM9 30h1v1H9z"/><path fill="#291d1b" d="M18 24h1v1H18z"/><path fill="#2a1f1c" d="M24 20h1v1H24z"/><path fill="#2a2a2a" d="M8 0h22v1H8zM4 1h1v1H4zM33 1h1v1H33zM0 5h1v1H0zM37 5h1v1H37zM38 9h1v1H38zM38 10h1v1H38zM38 11h1v1H38zM38 12h1v1H38zM38 13h1v1H38zM38 14h1v1H38zM38 15h1v1H38zM38 16h1v1H38zM38 17h1v1H38zM38 18h1v1H38zM38 19h1v1H38zM38 20h1v1H38zM38 21h1v1H38zM38 22h1v1H38zM38 23h1v1H38zM38 24h1v1H38zM38 25h1v1H38zM38 26h1v1H38zM38 27h1v1H38zM38 28h1v1H38zM38 29h1v1H38zM38 30h1v1H38zM0 34h1v1H0zM37 34h1v1H37zM4 38h1v1H4zM33 38h1v1H33zM8 39h22v1H8z"/><path fill="#2c1f21" d="M11 10h1v1H11z"/><path fill="#301f1e" d="M13 20h1v1H13z"/><path fill="#304a7a" d="M31 28h1v1H31z"/><path fill="#305775" d="M31 25h1v1H31z"/><path fill="#305a6e" d="M31 24h1v1H31z"/><path fill="#305d66" d="M31 23h1v1H31z"/><path fill="#32271d" d="M26 10h1v1H26z"/><path fill="#32547c" d="M31 26h1v1H31z"/><path fill="#32605c" d="M31 22h1v1H31z"/><path fill="#336252" d="M31 21h1v1H31z"/><path fill="#345182" d="M31 27h1v1H31z"/><path fill="#346349" d="M31 20h1v1H31z"/><path fill="#356541" d="M31 19h1v1H31z"/><path fill="#362223" d="M12 11h1v1H12z"/><path fill="#37201f" d="M18 16h1v1H18z"/><path fill="#376740" d="M31 18h1v1H31z"/><path fill="#396941" d="M31 17h1v1H31z"/><path fill="#3a281e" d="M25 19h1v1H25z"/><path fill="#3c64af" d="M26 29h1v1H26z"/><path fill="#3c65b3" d="M30 29h1v1H30z"/><path fill="#3d6b42" d="M31 16h1v1H31z"/><path fill="#3e2b1f" d="M25 11h1v1H25z"/><path fill="#3f2320" d="M19 16h1v1H19z"/><path fill="#3f2323" d="M13 12h1v1H13z"/><path fill="#406d43" d="M31 15h1v1H31z"/><path fill="#412321" d="M6 29h1v1H6z"/><path fill="#4374d1" d="M27 29h1v1H27zM29 29h1v1H29z"/><path fill="#442525" d="M12 19h1v1H12z"/><path fill="#4475d2" d="M28 29h1v1H28z"/><path fill="#489ac1" d="M26 24h1v1H26z"/><path fill="#496f42" d="M31 14h1v1H31z"/><path fill="#4994cf" d="M26 25h1v1H26z"/><path fill="#499dc4" d="M30 24h1v1H30z"/><path fill="#499fb2" d="M26 23h1v1H26z"/><path fill="#4a97d3" d="M30 25h1v1H30z"/><path fill="#4a9fc8" d="M28 24h2v1H28z"/><path fill="#4aa0c8" d="M27 24h1v1H27z"/><path fill="#4aa2b5" d="M30 23h1v1H30z"/><path fill="#4b9ad8" d="M27 25h3v1H27z"/><path fill="#4ba49f" d="M26 22h1v1H26z"/><path fill="#4ba5b8" d="M27 23h3v1H27z"/><path fill="#4c84ea" d="M26 28h1v1H26z"/><path fill="#4c8edc" d="M26 26h1v1H26z"/><path fill="#4ca7a1" d="M30 22h1v1H30z"/><path fill="#4d4824" d="M31 11h1v1H31z"/><path fill="#4d86f1" d="M30 28h1v1H30z"/><path fill="#4d91e2" d="M30 26h1v1H30z"/><path fill="#4daaa5" d="M27 22h3v1H27z"/><path fill="#4e2e22" d="M24 12h1v1H24z"/><path fill="#4e93e6" d="M27 26h3v1H27z"/><path fill="#4ea98b" d="M26 21h1v1H26z"/><path fill="#4f89e8" d="M26 27h1v1H26z"/><path fill="#4f89f7" d="M27 28h3v1H27z"/><path fill="#4fab8e" d="M30 21h1v1H30z"/><path fill="#50ad7a" d="M26 20h1v1H26z"/><path fill="#50af90" d="M27 21h1v1H27zM29 21h1v1H29z"/><path fill="#50af91" d="M28 21h1v1H28z"/><path fill="#518bf0" d="M30 27h1v1H30z"/><path fill="#51af7c" d="M30 20h1v1H30z"/><path fill="#528df5" d="M28 27h2v1H28z"/><path fill="#528ef5" d="M27 27h1v1H27z"/><path fill="#52b37e" d="M27 20h3v1H27z"/><path fill="#54b16a" d="M26 19h1v1H26z"/><path fill="#54b36b" d="M30 19h1v1H30z"/><path fill="#55b76d" d="M27 19h3v1H27z"/><path fill="#562927" d="M20 23h1v1H20z"/><path fill="#58b769" d="M30 18h1v1H30z"/><path fill="#59bb6a" d="M28 18h2v1H28z"/><path fill="#5a3343" d="M6 11h1v1H6z"/><path fill="#5b2a27" d="M14 13h1v1H14z"/><path fill="#5cba69" d="M27 18h1v1H27z"/><path fill="#5cba6b" d="M30 17h1v1H30z"/><path fill="#5dbd6d" d="M29 17h1v1H29z"/><path fill="#62bc6a" d="M28 17h1v1H28z"/><path fill="#63bd6d" d="M30 16h1v1H30z"/><path fill="#652d2a" d="M17 23h1v1H17z"/><path fill="#692e2a" d="M21 22h1v1H21z"/><path fill="#6a3328" d="M23 13h1v1H23z"/><path fill="#6aaf5f" d="M26 18h1v1H26z"/><path fill="#6bc16b" d="M29 16h1v1H29z"/><path fill="#70652c" d="M30 10h1v1H30z"/><path fill="#73312c" d="M15 14h1v1H15z"/><path fill="#73c26b" d="M30 15h1v1H30z"/><path fill="#747533" d="M31 13h1v1H31z"/><path fill="#76322d" d="M16 22h1v1H16z"/><path fill="#793f57" d="M7 10h1v1H7z"/><path fill="#7e7331" d="M31 12h1v1H31z"/><path fill="#81362f" d="M22 14h1v1H22z"/><path fill="#863630" d="M6 28h1v1H6z"/><path fill="#8a3832" d="M22 21h1v1H22z"/><path fill="#8b4150" d="M10 10h1v1H10z"/><path fill="#8bb157" d="M27 17h1v1H27z"/><path fill="#8c4762" d="M6 12h1v1H6z"/><path fill="#8e3933" d="M6 15h1v1H6zM6 16h1v1H6zM6 17h1v1H6zM6 18h1v1H6zM6 19h1v1H6zM6 20h1v1H6zM6 21h1v1H6zM6 22h1v1H6zM6 23h1v1H6zM6 24h1v1H6zM6 25h1v1H6zM6 26h1v1H6zM6 27h1v1H6z"/><path fill="#8f3b3b" d="M6 14h1v1H6z"/><path fill="#903933" d="M11 29h1v1H11z"/><path fill="#90455b" d="M6 13h1v1H6z"/><path fill="#973b35" d="M16 15h1v1H16z"/><path fill="#986e2f" d="M27 10h1v1H27z"/><path fill="#993c35" d="M15 21h1v1H15z"/><path fill="#a4ba54" d="M28 16h1v1H28z"/><path fill="#a54436" d="M23 20h1v1H23z"/><path fill="#a64038" d="M21 15h1v1H21z"/><path fill="#a94038" d="M17 16h1v1H17z"/><path fill="#af423a" d="M14 20h1v1H14z"/><path fill="#b0423a" d="M7 29h1v1H7z"/><path fill="#b4433b" d="M20 16h1v1H20z"/><path fill="#b44c58" d="M11 11h1v1H11z"/><path fill="#b95437" d="M24 19h1v1H24z"/><path fill="#bf463d" d="M18 17h1v1H18z"/><path fill="#bf5a7f" d="M8 10h1v1H8z"/><path fill="#c1a13a" d="M29 10h1v1H29z"/><path fill="#c1c74f" d="M29 15h1v1H29z"/><path fill="#c3473f" d="M19 23h1v1H19z"/><path fill="#c35876" d="M9 10h1v1H9z"/><path fill="#c4483f" d="M10 29h1v1H10z"/><path fill="#c5483f" d="M11 21h1v1H11zM11 22h1v1H11zM11 23h1v1H11zM11 24h1v1H11zM11 25h1v1H11zM11 26h1v1H11zM11 27h1v1H11zM11 28h1v1H11z"/><path fill="#c54943" d="M13 19h1v1H13z"/><path fill="#c6483f" d="M11 20h1v1H11z"/><path fill="#c64940" d="M8 29h1v1H8z"/><path fill="#c67c36" d="M26 11h1v1H26z"/><path fill="#c74940" d="M9 29h1v1H9z"/><path fill="#c84940" d="M11 19h1v1H11z"/><path fill="#c84e52" d="M12 12h1v1H12z"/><path fill="#c94940" d="M19 17h1v1H19z"/><path fill="#c94a40" d="M18 23h1v1H18z"/><path fill="#cb9e3a" d="M28 10h1v1H28z"/><path fill="#d1d050" d="M30 14h1v1H30z"/><path fill="#d36f39" d="M25 18h1v1H25z"/><path fill="#d37039" d="M25 12h1v1H25z"/><path fill="#d44d48" d="M13 13h1v1H13z"/><path fill="#d75256" d="M12 18h1v1H12z"/><path fill="#da4e44" d="M20 22h1v1H20z"/><path fill="#db623d" d="M24 13h1v1H24z"/><path fill="#dc4e44" d="M17 22h1v1H17z"/><path fill="#dc9240" d="M26 17h1v1H26z"/><path fill="#dd504d" d="M11 18h1v1H11z"/><path fill="#df4f45" d="M15 15h1v1H15zM21 21h1v1H21z"/><path fill="#e05046" d="M14 14h1v1H14z"/><path fill="#e15045" d="M16 16h1v1H16zM16 21h1v1H16z"/><path fill="#e15144" d="M22 15h1v1H22z"/><path fill="#e25145" d="M22 20h1v1H22z"/><path fill="#e25942" d="M23 14h1v1H23z"/><path fill="#e35046" d="M21 16h1v1H21z"/><path fill="#e36a99" d="M7 11h1v1H7z"/><path fill="#e45046" d="M7 16h1v1H7zM7 17h1v1H7zM17 17h1v1H17zM7 18h1v1H7zM7 19h1v1H7zM7 20h1v1H7zM15 20h1v1H15zM7 21h1v1H7zM7 22h1v1H7zM7 23h1v1H7zM7 24h1v1H7zM7 25h1v1H7zM7 26h1v1H7zM7 27h1v1H7z"/><path fill="#e45146" d="M7 28h1v1H7z"/><path fill="#e4524e" d="M7 15h1v1H7z"/><path fill="#e55146" d="M20 17h1v1H20z"/><path fill="#e55943" d="M23 19h1v1H23z"/><path fill="#e5607a" d="M10 11h1v1H10z"/><path fill="#e65146" d="M14 19h1v1H14z"/><path fill="#e6524c" d="M13 18h1v1H13z"/><path fill="#e6653f" d="M24 18h1v1H24z"/><path fill="#e6668b" d="M7 14h1v1H7z"/><path fill="#e75147" d="M10 19h1v1H10zM10 20h1v1H10zM10 21h1v1H10zM10 22h1v1H10zM10 23h1v1H10zM10 24h1v1H10zM10 25h1v1H10zM10 26h1v1H10zM10 27h1v1H10zM10 28h1v1H10z"/><path fill="#e75c6a" d="M11 12h1v1H11z"/><path fill="#e7a640" d="M27 16h1v1H27z"/><path fill="#e85247" d="M14 15h1v1H14zM15 16h1v1H15z"/><path fill="#e85248" d="M10 18h1v1H10z"/><path fill="#e85346" d="M22 19h1v1H22z"/><path fill="#e8534c" d="M13 14h1v1H13z"/><path fill="#e8575b" d="M12 17h1v1H12z"/><path fill="#e85a44" d="M23 15h1v1H23zM23 18h1v1H23z"/><path fill="#e86c9b" d="M7 13h1v1H7z"/><path fill="#e95247" d="M14 16h1v1H14zM8 17h1v1H8zM14 17h3v1H14zM21 17h1v1H21zM8 18h2v1H8zM14 18h8v1H14zM8 19h2v1H8zM15 19h7v1H15zM8 20h2v1H8zM16 20h6v1H16zM8 21h2v1H8zM17 21h4v1H17zM8 22h2v1H8zM18 22h2v1H18zM8 23h2v1H8zM8 24h2v1H8zM8 25h2v1H8zM8 26h2v1H8zM8 27h2v1H8zM8 28h2v1H8z"/><path fill="#e95346" d="M22 16h1v1H22zM22 17h1v1H22zM22 18h1v1H22z"/><path fill="#e9534a" d="M9 17h1v1H9z"/><path fill="#e9534d" d="M13 15h1v1H13zM13 17h1v1H13z"/><path fill="#e9544d" d="M8 16h1v1H8zM13 16h1v1H13z"/><path fill="#e9575c" d="M12 13h1v1H12z"/><path fill="#e9585c" d="M12 14h1v1H12zM12 15h1v1H12zM12 16h1v1H12z"/><path fill="#e9585d" d="M10 17h1v1H10z"/><path fill="#e95b44" d="M23 16h1v1H23zM23 17h1v1H23z"/><path fill="#e95c68" d="M11 17h1v1H11z"/><path fill="#e9663f" d="M24 14h1v1H24z"/><path fill="#e9673f" d="M24 17h1v1H24z"/><path fill="#e96d9c" d="M7 12h1v1H7z"/><path fill="#ea5d6b" d="M11 13h1v1H11zM11 14h1v1H11zM11 15h1v1H11zM9 16h1v1H9zM11 16h1v1H11z"/><path fill="#ea6179" d="M10 16h1v1H10z"/><path fill="#ea627c" d="M10 12h1v1H10zM10 13h1v1H10zM10 14h1v1H10zM10 15h1v1H10z"/><path fill="#ea6740" d="M24 15h1v1H24zM24 16h1v1H24z"/><path fill="#ea793c" d="M25 17h1v1H25z"/><path fill="#eb6482" d="M8 15h1v1H8z"/><path fill="#eb6c9a" d="M8 11h1v1H8z"/><path fill="#eb793d" d="M25 13h1v1H25zM25 15h1v1H25zM25 16h1v1H25z"/><path fill="#eb7a3d" d="M25 14h1v1H25z"/><path fill="#eb8e3c" d="M26 12h1v1H26z"/><path fill="#ec6689" d="M9 15h1v1H9z"/><path fill="#ec678b" d="M9 11h1v1H9zM9 12h1v1H9zM9 13h1v1H9zM9 14h1v1H9z"/><path fill="#ec6c99" d="M8 14h1v1H8z"/><path fill="#ec6c9a" d="M8 12h1v1H8zM8 13h1v1H8z"/><path fill="#eca33e" d="M27 11h1v1H27z"/><path fill="#ecce48" d="M30 11h1v1H30z"/><path fill="#ed8f3c" d="M26 13h1v1H26zM26 14h1v1H26zM26 15h1v1H26zM26 16h1v1H26z"/><path fill="#edba43" d="M28 15h1v1H28z"/><path fill="#f0a53e" d="M27 12h1v1H27zM27 13h1v1H27zM27 14h1v1H27zM27 15h1v1H27z"/><path fill="#f1d54a" d="M30 13h1v1H30z"/><path fill="#f2ca46" d="M29 14h1v1H29z"/><path fill="#f2d44a" d="M30 12h1v1H30z"/><path fill="#f3ba42" d="M28 11h1v1H28zM28 12h1v1H28zM28 13h1v1H28zM28 14h1v1H28z"/><path fill="#f5c945" d="M29 11h1v1H29z"/><path fill="#f6cb46" d="M29 12h1v1H29zM29 13h1v1H29z"/></svg>
